<?xml version="1.0" encoding="UTF-8"?>
<svg version="1.1" xmlns="http://www.w3.org/2000/svg" width="736" height="736">
<path d="M0 0 C12.68657782 2.0500559 25.30556948 17.78719015 32.44335938 27.64160156 C36.78022527 33.77414499 40.2223847 40.01187261 43 47 C43.42539062 48.00933594 43.42539062 48.00933594 43.859375 49.0390625 C50.93688893 66.58840827 50.51425256 84.47744637 49 103 C49.74894531 102.37609375 50.49789062 101.7521875 51.26953125 101.109375 C57.74813111 96.10444807 63.98693984 95.55665446 72 96 C72 96.99 72 97.98 72 99 C70.50834918 100.26466048 69.01201855 101.52543367 67.46875 102.7265625 C65.69333409 104.26588587 64.8127486 105.80557877 64 108 C63.34 108 62.68 108 62 108 C61.89429688 108.51046875 61.78859375 109.0209375 61.6796875 109.546875 C60.94703506 112.19116081 59.95445423 114.68387331 58.93139648 117.22729492 C56.43182579 123.4970325 54.51427035 129.51833985 53.4375 136.1875 C51.80232252 146.22516253 48.41045935 155.38334252 43 164 C43.66 163.67 44.32 163.34 45 163 C47.04055005 162.92934383 49.08334257 162.91578024 51.125 162.9375 C52.22070312 162.94652344 53.31640625 162.95554687 54.4453125 162.96484375 C55.70988281 162.98224609 55.70988281 162.98224609 57 163 C55.52620707 166.48563724 53.58094043 168.51324762 50.8125 171.0625 C42.52148045 179.26095633 38.03887804 188.80324624 33.42602539 199.34790039 C30.01105683 207.12599176 26.12626625 214.57946668 22 222 C21.34 222 20.68 222 20 222 C19.7525 222.70125 19.505 223.4025 19.25 224.125 C17.82819762 227.39514548 16.12753712 230.141122 14 233 C13.34 233 12.68 233 12 233 C11.7525 233.556875 11.505 234.11375 11.25 234.6875 C9.77075182 237.42410913 8.06532561 239.67650869 6 242 C5.34 242 4.68 242 4 242 C3.58814453 242.89525391 3.58814453 242.89525391 3.16796875 243.80859375 C-4.82403699 258.80362793 -27.67356054 269.98296694 -43.25 274.875 C-45.82440296 275.62896714 -48.40402813 276.32003706 -51 277 C-52.34384766 277.36931641 -52.34384766 277.36931641 -53.71484375 277.74609375 C-67.60528023 280.92794729 -83.43374753 279.9468367 -97 276 C-98.20785156 275.67128906 -99.41570312 275.34257813 -100.66015625 275.00390625 C-114.58031941 270.84369203 -125.9980649 263.38278239 -137 254 C-137.55945313 253.56171875 -138.11890625 253.1234375 -138.6953125 252.671875 C-145.32841088 247.46263544 -152.29134519 240.12596442 -155 232 C-155.39614654 226.75105833 -154.86557317 223.44657906 -152 219 C-148.73523298 215.54867487 -145.8386669 214.27835987 -141.0625 213.8984375 C-137.43451511 214.07708827 -135.1499955 215.17300261 -132 217 C-130.75 219.125 -130.75 219.125 -130 221 C-129.01 221.33 -128.02 221.66 -127 222 C-125.8125 224.5625 -125.8125 224.5625 -125 227 C-127.83857423 229.83857423 -131.13326348 229.90046025 -135 230 C-135.99 229.67 -136.98 229.34 -138 229 C-138 228.34 -138 227.68 -138 227 C-140.31 227 -142.62 227 -145 227 C-145.84748757 229.87540424 -146.25546665 231.41695918 -145.03125 234.2109375 C-136.2737058 246.58767089 -125.20242963 254.50774868 -111 260 C-109.80761719 260.48984375 -108.61523438 260.9796875 -107.38671875 261.484375 C-93.31645001 266.70433232 -77.0111362 267.77923405 -63 262 C-53.16255765 256.72165534 -45.07362732 248.46074529 -41 238 C-39.24772288 231.94733676 -38.6425086 226.09434247 -38.6875 219.8125 C-38.69241455 218.98733887 -38.6973291 218.16217773 -38.70239258 217.31201172 C-38.95728688 203.82483527 -42.65890279 190.93688696 -49.0625 179.0625 C-55.81118501 165.94920149 -57.71812972 150.62390885 -54.08203125 136.390625 C-52.83463283 133.63464003 -51.54113803 132.5783466 -49 131 C-48.65388672 132.68416016 -48.65388672 132.68416016 -48.30078125 134.40234375 C-46.54277915 142.60269106 -44.88539672 150.02086183 -40 157 C-39.4225 157.9075 -38.845 158.815 -38.25 159.75 C-35.00232997 162.99767003 -31.24238309 165.24478869 -27 167 C-25.68 167 -24.36 167 -23 167 C-23.58007812 166.06800781 -24.16015625 165.13601563 -24.7578125 164.17578125 C-39.22444482 140.68961803 -46.50118691 117.64984545 -40.20068359 90.08227539 C-39.7363891 88.16410822 -39.26930032 86.24661509 -38.79931641 84.32983398 C-37.29484275 78.00567544 -36.47845336 72.00454497 -36.4375 65.5 C-36.42332031 64.74098389 -36.40914063 63.98196777 -36.39453125 63.19995117 C-36.49288668 57.73938086 -38.08672129 54.58711081 -41 50 C-41 49.34 -41 48.68 -41 48 C-34.2697887 48.50476585 -29.55907884 51.37357698 -24.921875 56.1328125 C-19.79105706 62.2232109 -16.32548777 68.80138875 -13 76 C-12.83918945 75.25951416 -12.67837891 74.51902832 -12.51269531 73.75610352 C-11.76837883 70.35597874 -11.00930775 66.95930703 -10.25 63.5625 C-9.99734375 62.39783203 -9.7446875 61.23316406 -9.484375 60.03320312 C-7.58148515 51.58912942 -5.20897561 43.9009199 -0.3125 36.6875 C3.97853243 30.35058834 3.49322223 23.43943532 3 16 C2.36217262 12.79232159 1.57575222 9.69596938 0.65625 6.55859375 C0 4 0 4 0 0 Z M23 71 C22.9498877 71.89605957 22.89977539 72.79211914 22.84814453 73.71533203 C22.65531621 77.11147166 22.45705404 80.50721093 22.25537109 83.90283203 C22.16993471 85.35909038 22.08652717 86.8154695 22.00537109 88.27197266 C21.46461344 97.94552632 20.47137227 107.41497127 19 117 C18.82668709 118.37516783 18.66075775 119.75132443 18.5078125 121.12890625 C16.64991971 137.7930671 13.28619019 154.01724944 8.55078125 170.09472656 C7.79297141 172.71615742 7.11842621 175.35771023 6.4375 178 C5.29773771 182.16863334 3.88018153 186.12061928 2.2109375 190.10546875 C1.28949067 192.30802392 0.40436209 194.51378197 -0.4609375 196.73828125 C-5.29788815 209.02812904 -10.78981101 221.50763682 -18.30078125 232.42578125 C-20.18363171 234.76411339 -20.18363171 234.76411339 -20 237 C-20.66 237 -21.32 237 -22 237 C-22.66 238.65 -23.32 240.3 -24 242 C-24.66 242 -25.32 242 -26 242 C-29.02517909 245.05558423 -29.02517909 245.05558423 -30 249 C-14.83478379 244.73478294 -3.22008818 223.64928365 4 211 C8.94679502 201.95472398 12.7660616 192.77934112 16 183 C16.24226318 182.30962646 16.48452637 181.61925293 16.73413086 180.90795898 C18.5873115 175.56020915 19.947082 170.233242 21.0625 164.6875 C21.23241455 163.85718262 21.4023291 163.02686523 21.57739258 162.17138672 C24.85921301 145.96552738 26.17295319 130.2330765 26.13037109 113.71777344 C26.12503812 111.26751431 26.13033532 108.8174409 26.13671875 106.3671875 C26.14130552 98.41930451 26.0174561 90.48544613 25.6171875 82.546875 C25.5716423 81.49237152 25.5716423 81.49237152 25.525177 80.41656494 C25.31661351 76.83434236 24.92811791 74.06501222 23 71 Z " fill="#221F20" transform="translate(449,269)"/>
<path d="M0 0 C1.19626762 -0.0049926 1.19626762 -0.0049926 2.41670227 -0.01008606 C4.09314403 -0.01511144 5.76959564 -0.01749576 7.44604492 -0.01733398 C9.96485546 -0.019511 12.48322027 -0.03768798 15.00195312 -0.05664062 C29.28969424 -0.10710125 42.56191101 1.49922428 56.30273438 5.57617188 C57.64774261 5.97454675 58.99550877 6.36371337 60.34570312 6.74414062 C75.44792717 11.03694429 92.46495412 17.61919318 104.30078125 28.16796875 C103.81838408 33.71553626 103.81838408 33.71553626 101.6875 35.578125 C97.9716522 36.49644418 95.51244605 34.53228423 92.36328125 32.73046875 C72.34584248 22.00876421 50.27053976 16.98006993 27.68457031 16.98266602 C25.56945398 16.98048798 23.45486768 16.96230503 21.33984375 16.94335938 C13.14486513 16.90927364 5.35019147 17.52733924 -2.69921875 19.16796875 C-4.04256278 19.40723849 -5.38626396 19.64452052 -6.73046875 19.87890625 C-22.80697608 22.95661599 -38.3022232 28.31306057 -51.76953125 37.81640625 C-55.51508786 40.4398123 -59.3478743 42.7175206 -63.69921875 44.16796875 C-63.69921875 44.82796875 -63.69921875 45.48796875 -63.69921875 46.16796875 C-65.34921875 46.82796875 -66.99921875 47.48796875 -68.69921875 48.16796875 C-68.69921875 48.82796875 -68.69921875 49.48796875 -68.69921875 50.16796875 C-70.09765625 51.5078125 -70.09765625 51.5078125 -72.07421875 53.10546875 C-93.13954792 71.1667633 -107.76862229 97.93841198 -109.98803711 125.79272461 C-110.09874841 129.42252647 -110.1092464 133.03676949 -110.07421875 136.66796875 C-110.08582031 137.87066406 -110.09742188 139.07335937 -110.109375 140.3125 C-110.0716441 152.02165747 -107.87590974 163.23263233 -103.69921875 174.16796875 C-103.21195313 175.49828125 -103.21195313 175.49828125 -102.71484375 176.85546875 C-99.0660653 186.25232284 -94.07483889 195.4623143 -87.92578125 203.48046875 C-86.69921875 205.16796875 -86.69921875 205.16796875 -86.69921875 207.16796875 C-85.70921875 207.49796875 -84.71921875 207.82796875 -83.69921875 208.16796875 C-82.53247323 209.83474806 -81.36871806 211.50377524 -80.2265625 213.1875 C-76.81333507 217.61334734 -72.32501818 221.08410246 -67.69921875 224.16796875 C-67.69921875 224.82796875 -67.69921875 225.48796875 -67.69921875 226.16796875 C-67.03921875 226.37421875 -66.37921875 226.58046875 -65.69921875 226.79296875 C-63.11087436 227.97929326 -61.45606718 229.05636612 -59.26171875 230.79296875 C-50.01689077 237.88583491 -39.74433724 242.67973026 -29.10107422 247.2355957 C-23.98439944 249.47132911 -19.64386287 252.08448566 -15.16796875 255.44140625 C-0.87131464 265.44001561 15.29168892 268.60296752 32.30078125 270.16796875 C31.97078125 271.15796875 31.64078125 272.14796875 31.30078125 273.16796875 C22.94225582 274.1232288 14.70862054 274.34813673 6.30078125 274.16796875 C5.64787109 274.16071777 4.99496094 274.1534668 4.32226562 274.14599609 C-34.57256044 273.59594942 -73.32929125 258.28627683 -102.078125 231.9921875 C-103.69921875 230.16796875 -103.69921875 230.16796875 -103.69921875 228.16796875 C-105.01921875 227.50796875 -106.33921875 226.84796875 -107.69921875 226.16796875 C-107.69921875 225.50796875 -107.69921875 224.84796875 -107.69921875 224.16796875 C-108.68921875 223.83796875 -109.67921875 223.50796875 -110.69921875 223.16796875 C-112.36118774 221.21895848 -113.88368377 219.29444502 -115.38671875 217.23046875 C-115.80244141 216.67939453 -116.21816406 216.12832031 -116.64648438 215.56054688 C-119.69921875 211.43509467 -119.69921875 211.43509467 -119.69921875 209.16796875 C-120.35921875 209.16796875 -121.01921875 209.16796875 -121.69921875 209.16796875 C-127.03237969 201.76276294 -131.31188441 193.62544775 -134.69921875 185.16796875 C-135.06660156 184.27198975 -135.06660156 184.27198975 -135.44140625 183.35791016 C-146.75786155 155.36789047 -147.94537542 120.45375673 -136.69921875 92.16796875 C-134.27266477 86.70892039 -131.52129862 81.43054376 -128.69921875 76.16796875 C-128.14234375 75.10320312 -127.58546875 74.0384375 -127.01171875 72.94140625 C-123.0998307 65.81349484 -118.31163229 59.85118798 -112.95703125 53.78515625 C-110.71341481 51.40104943 -110.71341481 51.40104943 -109.69921875 49.16796875 C-109.03921875 49.16796875 -108.37921875 49.16796875 -107.69921875 49.16796875 C-107.43109375 48.56984375 -107.16296875 47.97171875 -106.88671875 47.35546875 C-105.70004469 45.16949021 -104.60322762 43.75464281 -102.69921875 42.16796875 C-102.03921875 42.16796875 -101.37921875 42.16796875 -100.69921875 42.16796875 C-100.69921875 41.50796875 -100.69921875 40.84796875 -100.69921875 40.16796875 C-99.3449707 38.87451172 -99.3449707 38.87451172 -97.4375 37.41015625 C-96.73753906 36.87092529 -96.03757813 36.33169434 -95.31640625 35.77612305 C-94.55585938 35.20418213 -93.7953125 34.63224121 -93.01171875 34.04296875 C-92.23441406 33.45620361 -91.45710938 32.86943848 -90.65625 32.26489258 C-64.72878871 12.91258003 -32.66869395 0.04907243 0 0 Z " fill="#221F20" transform="translate(340.69921875,278.83203125)"/>
<path d="M0 0 C0 0.99 0 1.98 0 3 C-1.609375 4.2109375 -1.609375 4.2109375 -3.75 5.375 C-7.99092815 7.85950835 -10.77645357 10.55290713 -13 15 C-11.88625 15.061875 -10.7725 15.12375 -9.625 15.1875 C-4.14459655 15.85916579 0.2269582 18.36117793 5 21 C6.36125 21.6496875 6.36125 21.6496875 7.75 22.3125 C13.26649654 26.4498724 16.92400365 32.18535644 18 39 C18.09069498 45.91873102 15.79981837 51.76226513 13 58 C12.34 58 11.68 58 11 58 C10.75121094 58.75796875 10.50242187 59.5159375 10.24609375 60.296875 C8.13584495 64.8745934 4.46905439 66.90471634 0 69 C-11.46499327 71.79317116 -21.2086113 67.92002424 -31 62 C-31.66 61.01 -32.32 60.02 -33 59 C-32.16021606 58.970271 -32.16021606 58.970271 -31.3034668 58.93994141 C-28.76434146 58.84462217 -26.22603112 58.73497247 -23.6875 58.625 C-22.80642578 58.5940625 -21.92535156 58.563125 -21.01757812 58.53125 C-20.17001953 58.49257813 -19.32246094 58.45390625 -18.44921875 58.4140625 C-17.66893311 58.3826416 -16.88864746 58.3512207 -16.0847168 58.31884766 C-13.69844232 58.10412111 -13.69844232 58.10412111 -11 56 C-9.64660961 50.06590367 -9.77300846 44.7203116 -12 39 C-14.64396104 35.72983766 -17.09273377 33.51912388 -21 32 C-34.02111332 30.72603442 -46.29147654 32.61125468 -57.12890625 40.40625 C-59.80284444 42.68384245 -61.83363724 45.24281104 -64 48 C-64.66 48 -65.32 48 -66 48 C-66.2784375 48.86625 -66.2784375 48.86625 -66.5625 49.75 C-69.68963695 54.64464913 -75.24678028 56.32126745 -80.66357422 57.61181641 C-85.09138665 58.34747176 -89.52491253 58.20524295 -94 58.125 C-94.96550781 58.11597656 -95.93101562 58.10695313 -96.92578125 58.09765625 C-99.28412099 58.07430635 -101.64192286 58.04156047 -104 58 C-103.67 57.01 -103.34 56.02 -103 55 C-100.58268076 53.98075718 -98.23610712 53.12478397 -95.75 52.3125 C-86.91316642 49.23073876 -79.18044586 45.03024197 -71.765625 39.26171875 C-70 38 -70 38 -68 38 C-68 37.34 -68 36.68 -68 36 C-66.42578125 34.703125 -66.42578125 34.703125 -64.3125 33.25 C-60.49325548 30.48642694 -57.90735061 27.69312104 -55 24 C-53.33333333 22.33333333 -51.66666667 20.66666667 -50 19 C-49.443125 18.236875 -48.88625 17.47375 -48.3125 16.6875 C-47.879375 16.130625 -47.44625 15.57375 -47 15 C-46.34 15 -45.68 15 -45 15 C-44.773125 14.236875 -44.54625 13.47375 -44.3125 12.6875 C-41.67355927 7.2839547 -35.38872364 5.85089205 -30.01171875 3.984375 C-19.67043448 0.60434434 -10.81446757 -0.3988943 0 0 Z " fill="#211E1F" transform="translate(508,490)"/>
<path d="M0 0 C1.60138494 -0.01654759 3.20269637 -0.04382244 4.80371094 -0.08203125 C7.11684327 -0.13692965 9.42824647 -0.15869153 11.74194336 -0.17333984 C12.45357132 -0.19600922 13.16519928 -0.21867859 13.89839172 -0.24203491 C17.88649275 -0.22516787 19.43223314 0.2107662 22.52587891 2.8203125 C23.20948486 3.6551416 23.89309082 4.4899707 24.59741211 5.35009766 C25.09241211 5.84509766 25.09241211 5.84509766 25.59741211 6.35009766 C25.69572357 7.84879814 25.72539667 9.35208304 25.72680664 10.85400391 C25.7299588 11.81169678 25.73311096 12.76938965 25.73635864 13.75610352 C25.73433441 14.79774658 25.73231018 15.83938965 25.73022461 16.91259766 C25.73118134 17.97422119 25.73213806 19.03584473 25.73312378 20.12963867 C25.73380575 22.37923237 25.7319503 24.62882802 25.7277832 26.87841797 C25.72243521 30.33516837 25.72772765 33.79178883 25.73413086 37.24853516 C25.73347008 39.42822295 25.73218892 41.60791065 25.73022461 43.78759766 C25.73224884 44.82924072 25.73427307 45.87088379 25.73635864 46.9440918 C25.7316304 48.3806311 25.7316304 48.3806311 25.72680664 49.84619141 C25.72601105 50.69366943 25.72521545 51.54114746 25.72439575 52.41430664 C25.59741211 54.35009766 25.59741211 54.35009766 24.59741211 55.35009766 C23.22131329 55.44805077 21.84027329 55.47807854 20.46069336 55.47949219 C19.14427856 55.48422043 19.14427856 55.48422043 17.80126953 55.48904419 C16.84712158 55.48701996 15.89297363 55.48499573 14.90991211 55.48291016 C13.45065308 55.48434525 13.45065308 55.48434525 11.96191406 55.48580933 C9.90063411 55.48649124 7.83935202 55.48463618 5.77807617 55.48046875 C2.61103523 55.47512066 -0.55586389 55.48041338 -3.72290039 55.48681641 C-5.72029654 55.48615563 -7.7176926 55.48487447 -9.71508789 55.48291016 C-10.66923584 55.48493439 -11.62338379 55.48695862 -12.60644531 55.48904419 C-13.48405518 55.48589203 -14.36166504 55.48273987 -15.26586914 55.47949219 C-16.0422876 55.47869659 -16.81870605 55.477901 -17.61865234 55.4770813 C-19.40258789 55.35009766 -19.40258789 55.35009766 -20.40258789 54.35009766 C-20.51645715 52.87316203 -20.56213573 51.39088382 -20.57958984 49.90966797 C-20.59242508 48.96488586 -20.60526031 48.02010376 -20.6184845 47.04669189 C-20.62587143 46.01759705 -20.63325836 44.9885022 -20.64086914 43.92822266 C-20.64894089 42.87608582 -20.65701263 41.82394897 -20.66532898 40.7399292 C-20.67919012 38.50713763 -20.68990314 36.27432469 -20.69775391 34.04150391 C-20.71494567 30.62833312 -20.75881198 27.21613586 -20.80297852 23.80322266 C-20.81310674 21.63656313 -20.82162244 19.46989535 -20.82836914 17.30322266 C-20.84587723 16.28222473 -20.86338531 15.26122681 -20.88142395 14.20928955 C-20.85970138 7.10058774 -20.85970138 7.10058774 -18.50097656 3.22802734 C-13.5170032 -1.23232438 -6.36699105 0.04822984 0 0 Z M-2.77758789 6.97509766 C-4.81570709 9.95388726 -4.72411304 11.81332102 -4.40258789 15.35009766 C-4.07258789 15.35009766 -3.74258789 15.35009766 -3.40258789 15.35009766 C-2.74258789 13.37009766 -2.08258789 11.39009766 -1.40258789 9.35009766 C4.34741211 8.22509766 4.34741211 8.22509766 6.59741211 9.35009766 C7.32435115 11.32898726 7.99557462 13.32964323 8.59741211 15.35009766 C8.92741211 15.35009766 9.25741211 15.35009766 9.59741211 15.35009766 C9.91893726 11.81332102 10.01053131 9.95388726 7.97241211 6.97509766 C4.08330589 4.31413024 1.11151833 4.31413024 -2.77758789 6.97509766 Z " fill="#221F20" transform="translate(349.402587890625,175.64990234375)"/>
<path d="M0 0 C12.68657782 2.0500559 25.30556948 17.78719015 32.44335938 27.64160156 C36.78022527 33.77414499 40.2223847 40.01187261 43 47 C43.42539062 48.00933594 43.42539062 48.00933594 43.859375 49.0390625 C50.93688893 66.58840827 50.51425256 84.47744637 49 103 C49.74894531 102.37609375 50.49789062 101.7521875 51.26953125 101.109375 C57.74813111 96.10444807 63.98693984 95.55665446 72 96 C72 96.99 72 97.98 72 99 C70.50834918 100.26466048 69.01201855 101.52543367 67.46875 102.7265625 C65.69333409 104.26588587 64.8127486 105.80557877 64 108 C63.34 108 62.68 108 62 108 C61.89429688 108.51046875 61.78859375 109.0209375 61.6796875 109.546875 C60.94703506 112.19116081 59.95445423 114.68387331 58.93139648 117.22729492 C56.43182579 123.4970325 54.51427035 129.51833985 53.4375 136.1875 C51.80232252 146.22516253 48.41045935 155.38334252 43 164 C43.66 163.67 44.32 163.34 45 163 C47.04055005 162.92934383 49.08334257 162.91578024 51.125 162.9375 C52.22070312 162.94652344 53.31640625 162.95554687 54.4453125 162.96484375 C55.70988281 162.98224609 55.70988281 162.98224609 57 163 C55.52620707 166.48563724 53.58094043 168.51324762 50.8125 171.0625 C42.52148045 179.26095633 38.03887804 188.80324624 33.42602539 199.34790039 C30.01105683 207.12599176 26.12626625 214.57946668 22 222 C21.34 222 20.68 222 20 222 C19.7525 222.70125 19.505 223.4025 19.25 224.125 C17.82819762 227.39514548 16.12753712 230.141122 14 233 C13.34 233 12.68 233 12 233 C11.7525 233.556875 11.505 234.11375 11.25 234.6875 C9.77075182 237.42410913 8.06532561 239.67650869 6 242 C5.34 242 4.68 242 4 242 C3.58814453 242.89525391 3.58814453 242.89525391 3.16796875 243.80859375 C-4.82403699 258.80362793 -27.67356054 269.98296694 -43.25 274.875 C-45.82440296 275.62896714 -48.40402813 276.32003706 -51 277 C-52.34384766 277.36931641 -52.34384766 277.36931641 -53.71484375 277.74609375 C-67.60528023 280.92794729 -83.43374753 279.9468367 -97 276 C-98.20785156 275.67128906 -99.41570312 275.34257813 -100.66015625 275.00390625 C-114.58031941 270.84369203 -125.9980649 263.38278239 -137 254 C-137.55945313 253.56171875 -138.11890625 253.1234375 -138.6953125 252.671875 C-145.32841088 247.46263544 -152.29134519 240.12596442 -155 232 C-155.39614654 226.75105833 -154.86557317 223.44657906 -152 219 C-148.73523298 215.54867487 -145.8386669 214.27835987 -141.0625 213.8984375 C-137.43451511 214.07708827 -135.1499955 215.17300261 -132 217 C-130.75 219.125 -130.75 219.125 -130 221 C-129.01 221.33 -128.02 221.66 -127 222 C-125.8125 224.5625 -125.8125 224.5625 -125 227 C-127.83857423 229.83857423 -131.13326348 229.90046025 -135 230 C-135.99 229.67 -136.98 229.34 -138 229 C-138 228.34 -138 227.68 -138 227 C-140.31 227 -142.62 227 -145 227 C-145.84748757 229.87540424 -146.25546665 231.41695918 -145.03125 234.2109375 C-136.2737058 246.58767089 -125.20242963 254.50774868 -111 260 C-109.80761719 260.48984375 -108.61523438 260.9796875 -107.38671875 261.484375 C-93.31645001 266.70433232 -77.0111362 267.77923405 -63 262 C-53.16255765 256.72165534 -45.07362732 248.46074529 -41 238 C-39.24772288 231.94733676 -38.6425086 226.09434247 -38.6875 219.8125 C-38.69241455 218.98733887 -38.6973291 218.16217773 -38.70239258 217.31201172 C-38.95728688 203.82483527 -42.65890279 190.93688696 -49.0625 179.0625 C-55.81118501 165.94920149 -57.71812972 150.62390885 -54.08203125 136.390625 C-52.83463283 133.63464003 -51.54113803 132.5783466 -49 131 C-48.65388672 132.68416016 -48.65388672 132.68416016 -48.30078125 134.40234375 C-46.54277915 142.60269106 -44.88539672 150.02086183 -40 157 C-39.4225 157.9075 -38.845 158.815 -38.25 159.75 C-35.00232997 162.99767003 -31.24238309 165.24478869 -27 167 C-25.68 167 -24.36 167 -23 167 C-23.58007812 166.06800781 -24.16015625 165.13601563 -24.7578125 164.17578125 C-39.22444482 140.68961803 -46.50118691 117.64984545 -40.20068359 90.08227539 C-39.7363891 88.16410822 -39.26930032 86.24661509 -38.79931641 84.32983398 C-37.29484275 78.00567544 -36.47845336 72.00454497 -36.4375 65.5 C-36.42332031 64.74098389 -36.40914063 63.98196777 -36.39453125 63.19995117 C-36.49288668 57.73938086 -38.08672129 54.58711081 -41 50 C-41 49.34 -41 48.68 -41 48 C-34.2697887 48.50476585 -29.55907884 51.37357698 -24.921875 56.1328125 C-19.79105706 62.2232109 -16.32548777 68.80138875 -13 76 C-12.83918945 75.25951416 -12.67837891 74.51902832 -12.51269531 73.75610352 C-11.76837883 70.35597874 -11.00930775 66.95930703 -10.25 63.5625 C-9.99734375 62.39783203 -9.7446875 61.23316406 -9.484375 60.03320312 C-7.58148515 51.58912942 -5.20897561 43.9009199 -0.3125 36.6875 C3.97853243 30.35058834 3.49322223 23.43943532 3 16 C2.36217262 12.79232159 1.57575222 9.69596938 0.65625 6.55859375 C0 4 0 4 0 0 Z M3 3 C3.2165625 4.8871875 3.2165625 4.8871875 3.4375 6.8125 C3.51871094 7.52019531 3.59992188 8.22789062 3.68359375 8.95703125 C3.97170735 11.19396393 3.97170735 11.19396393 5 14 C5.51127718 23.46457289 5.49386908 31.2506385 0.1875 39.3125 C-7.3555904 51.47343354 -8.97722866 67.08728006 -11 81 C-11.99 81.33 -12.98 81.66 -14 82 C-14.12375 81.42894531 -14.2475 80.85789062 -14.375 80.26953125 C-16.38370543 72.37280801 -20.13245912 65.50641049 -25 59 C-26.485 58.505 -26.485 58.505 -28 58 C-28.33 57.01 -28.66 56.02 -29 55 C-31.58072903 52.67734388 -32.45176068 52 -36 52 C-35.83886719 53.00933594 -35.67773438 54.01867187 -35.51171875 55.05859375 C-33.71895306 68.86699515 -35.41681838 82.62278861 -39 96 C-43.59392694 118.77133569 -37.06140532 141.1167313 -24.83203125 160.29296875 C-23.07989757 162.95876717 -23.07989757 162.95876717 -21.26171875 165.17578125 C-20 167 -20 167 -20 170 C-25.54550102 169.43123066 -30.04145019 167.38911945 -35 165 C-35.70898438 164.70996094 -36.41796875 164.41992188 -37.1484375 164.12109375 C-39.47471653 162.71256615 -39.94922906 161.47616455 -41 159 C-41.37898438 158.38382813 -41.75796875 157.76765625 -42.1484375 157.1328125 C-46.20826224 150.48711214 -48.09370922 143.48671744 -50 136 C-53.76152632 139.46907522 -53.82627054 142.38134615 -54.16015625 147.4140625 C-54.61842391 161.24179101 -49.18802531 173.70891864 -43.60546875 186.09375 C-36.72054523 201.56922765 -33.58573698 221.34611736 -38.6875 237.875 C-40.51526789 242.46734872 -43.00725263 246.09280205 -46 250 C-46 250.99 -46 251.98 -46 253 C-46.53625 253.2475 -47.0725 253.495 -47.625 253.75 C-50.5823982 255.30652537 -53.29724051 257.03435673 -56 259 C-56 259.66 -56 260.32 -56 261 C-56.763125 261.2475 -57.52625 261.495 -58.3125 261.75 C-61.79946612 262.86357352 -61.79946612 262.86357352 -64.25 264.0234375 C-79.54451855 270.59821529 -99.27222923 267.18872786 -114.35546875 261.21875 C-126.96717451 255.40656064 -139.70697451 247.1486952 -147 235 C-147.8046875 231.84375 -147.8046875 231.84375 -148 229 C-146.5625 226.625 -146.5625 226.625 -145 225 C-138.375 225.75 -138.375 225.75 -135 228 C-131.36060068 227.68269476 -131.36060068 227.68269476 -128 227 C-128.99 224.525 -128.99 224.525 -130 222 C-130.66 222 -131.32 222 -132 222 C-132.33 221.01 -132.66 220.02 -133 219 C-136.4502217 216.6998522 -138.4523981 215.98111718 -142.625 216.125 C-145.86686157 216.96548263 -147.64973458 217.64973458 -150 220 C-150 220.66 -150 221.32 -150 222 C-150.66 222 -151.32 222 -152 222 C-153.19190344 225.72469825 -153.29424243 229.10946118 -153 233 C-151.37024015 236.11621579 -151.37024015 236.11621579 -149 238.9375 C-148.59209229 239.45328613 -148.18418457 239.96907227 -147.76391602 240.50048828 C-132.69466262 259.22829128 -110.07164024 273.0916004 -86.11328125 276.3984375 C-83.07262438 276.69884953 -80.05293415 276.87638426 -77 277 C-75.83597656 277.05285156 -74.67195313 277.10570312 -73.47265625 277.16015625 C-48.60165288 277.76040082 -25.60924141 268.33586113 -7 252 C-6.20980469 251.34128906 -5.41960937 250.68257812 -4.60546875 250.00390625 C-0.25171143 246.29996345 3.36977362 242.57366237 6.61328125 237.859375 C8 236 8 236 9.87109375 234.16015625 C20.23026685 223.64892189 27.19821603 209.69203638 32.89501953 196.24609375 C36.36007713 188.08326749 40.31380298 181.06328404 45.703125 174.015625 C47.941746 171.07648315 49.98198744 168.0918174 52 165 C48.04 165 44.08 165 40 165 C41.3303125 163.02 41.3303125 163.02 42.6875 161 C48.03473732 152.07112258 50.47939798 141.93808666 52.5 131.8125 C54.7025923 121.00872325 58.55349836 111.91025083 65 103 C66.01488468 101.34235502 67.02402398 99.68084758 68 98 C59.32038169 98.61997274 53.69239669 101.48861449 47 107 C46.34 107 45.68 107 45 107 C45.309375 106.030625 45.61875 105.06125 45.9375 104.0625 C49.64287544 90.84403299 48.6880849 76.30345201 46 63 C45.82855469 62.11183594 45.65710938 61.22367187 45.48046875 60.30859375 C43.46348326 51.5769985 39.22602956 43.83249263 35 36 C34.48050781 35.03320312 33.96101562 34.06640625 33.42578125 33.0703125 C29.29190528 25.79922107 24.05581001 18.66971658 17 14 C16.34 14 15.68 14 15 14 C14.67 13.01 14.34 12.02 14 11 C12.24442763 9.40111704 12.24442763 9.40111704 10.125 7.9375 C9.42632812 7.43089844 8.72765625 6.92429687 8.0078125 6.40234375 C6.35332115 5.24677489 4.67915109 4.11943406 3 3 Z " fill="#040303" transform="translate(449,269)"/>
<path d="M0 0 C0.71902496 0.00247742 1.43804993 0.00495483 2.17886353 0.00750732 C3.31565048 -0.00015907 3.31565048 -0.00015907 4.47540283 -0.00798035 C6.98731319 -0.0219116 9.49895031 -0.02091713 12.01089478 -0.01861572 C13.75202538 -0.02250039 15.49315503 -0.02683458 17.23428345 -0.03160095 C20.88608877 -0.03907053 24.53779743 -0.03876633 28.18960571 -0.0335083 C32.87753872 -0.02770917 37.56507721 -0.04465165 42.25294495 -0.06785297 C45.8490939 -0.08255818 49.44514711 -0.08346648 53.0413208 -0.08034325 C54.77014956 -0.08085797 56.49898347 -0.0861238 58.2277832 -0.09615517 C60.64142791 -0.10844199 63.05429451 -0.10177559 65.46792603 -0.09014893 C66.18695099 -0.09779266 66.90597595 -0.1054364 67.64678955 -0.11331177 C69.63516235 -0.09205627 69.63516235 -0.09205627 72.82339478 0.28216553 C75.12095399 3.72850435 75.05983453 4.99284944 75.01870728 9.04388428 C75.01226196 10.162146 75.00581665 11.28040771 74.99917603 12.43255615 C74.97403931 14.18342529 74.97403931 14.18342529 74.94839478 15.96966553 C74.93937134 17.14851318 74.9303479 18.32736084 74.92105103 19.54193115 C74.897459 22.45554579 74.86454018 25.36875445 74.82339478 28.28216553 C69.4236861 27.88528172 64.15603466 27.40072961 58.86245728 26.23919678 C51.24904573 24.78754417 43.5602459 24.94713838 35.83755493 24.9664917 C33.22433013 24.96963434 30.61226027 24.94618565 27.99917603 24.9208374 C18.11355118 24.88547408 8.80737973 25.64575137 -0.88119507 27.63690186 C-4.17660522 28.28216553 -4.17660522 28.28216553 -7.17660522 28.28216553 C-7.23444364 23.99055505 -7.27014643 19.69904408 -7.30160522 15.40716553 C-7.31836304 14.18384521 -7.33512085 12.9605249 -7.35238647 11.70013428 C-7.35883179 10.53353271 -7.3652771 9.36693115 -7.37191772 8.16497803 C-7.38239136 7.08619385 -7.39286499 6.00740967 -7.40365601 4.89593506 C-6.97333984 -0.05779066 -4.36619305 0.04714322 0 0 Z " fill="#211E1F" transform="translate(318.1766052246094,252.71783447265625)"/>
<path d="M0 0 C1.19626762 -0.0049926 1.19626762 -0.0049926 2.41670227 -0.01008606 C4.09314403 -0.01511144 5.76959564 -0.01749576 7.44604492 -0.01733398 C9.96485546 -0.019511 12.48322027 -0.03768798 15.00195312 -0.05664062 C29.28969424 -0.10710125 42.56191101 1.49922428 56.30273438 5.57617188 C57.64774261 5.97454675 58.99550877 6.36371337 60.34570312 6.74414062 C75.44792717 11.03694429 92.46495412 17.61919318 104.30078125 28.16796875 C103.81838408 33.71553626 103.81838408 33.71553626 101.6875 35.578125 C97.9716522 36.49644418 95.51244605 34.53228423 92.36328125 32.73046875 C72.34584248 22.00876421 50.27053976 16.98006993 27.68457031 16.98266602 C25.56945398 16.98048798 23.45486768 16.96230503 21.33984375 16.94335938 C13.14486513 16.90927364 5.35019147 17.52733924 -2.69921875 19.16796875 C-4.04256278 19.40723849 -5.38626396 19.64452052 -6.73046875 19.87890625 C-22.80697608 22.95661599 -38.3022232 28.31306057 -51.76953125 37.81640625 C-55.51508786 40.4398123 -59.3478743 42.7175206 -63.69921875 44.16796875 C-63.69921875 44.82796875 -63.69921875 45.48796875 -63.69921875 46.16796875 C-65.34921875 46.82796875 -66.99921875 47.48796875 -68.69921875 48.16796875 C-68.69921875 48.82796875 -68.69921875 49.48796875 -68.69921875 50.16796875 C-70.09765625 51.5078125 -70.09765625 51.5078125 -72.07421875 53.10546875 C-93.13954792 71.1667633 -107.76862229 97.93841198 -109.98803711 125.79272461 C-110.09874841 129.42252647 -110.1092464 133.03676949 -110.07421875 136.66796875 C-110.08582031 137.87066406 -110.09742188 139.07335937 -110.109375 140.3125 C-110.0716441 152.02165747 -107.87590974 163.23263233 -103.69921875 174.16796875 C-103.21195313 175.49828125 -103.21195313 175.49828125 -102.71484375 176.85546875 C-99.0660653 186.25232284 -94.07483889 195.4623143 -87.92578125 203.48046875 C-86.69921875 205.16796875 -86.69921875 205.16796875 -86.69921875 207.16796875 C-85.70921875 207.49796875 -84.71921875 207.82796875 -83.69921875 208.16796875 C-82.53247323 209.83474806 -81.36871806 211.50377524 -80.2265625 213.1875 C-76.81333507 217.61334734 -72.32501818 221.08410246 -67.69921875 224.16796875 C-67.69921875 224.82796875 -67.69921875 225.48796875 -67.69921875 226.16796875 C-67.03921875 226.37421875 -66.37921875 226.58046875 -65.69921875 226.79296875 C-63.11087436 227.97929326 -61.45606718 229.05636612 -59.26171875 230.79296875 C-50.01689077 237.88583491 -39.74433724 242.67973026 -29.10107422 247.2355957 C-23.98439944 249.47132911 -19.64386287 252.08448566 -15.16796875 255.44140625 C-0.87131464 265.44001561 15.29168892 268.60296752 32.30078125 270.16796875 C31.97078125 271.15796875 31.64078125 272.14796875 31.30078125 273.16796875 C22.94225582 274.1232288 14.70862054 274.34813673 6.30078125 274.16796875 C5.64787109 274.16071777 4.99496094 274.1534668 4.32226562 274.14599609 C-34.57256044 273.59594942 -73.32929125 258.28627683 -102.078125 231.9921875 C-103.69921875 230.16796875 -103.69921875 230.16796875 -103.69921875 228.16796875 C-105.01921875 227.50796875 -106.33921875 226.84796875 -107.69921875 226.16796875 C-107.69921875 225.50796875 -107.69921875 224.84796875 -107.69921875 224.16796875 C-108.68921875 223.83796875 -109.67921875 223.50796875 -110.69921875 223.16796875 C-112.36118774 221.21895848 -113.88368377 219.29444502 -115.38671875 217.23046875 C-115.80244141 216.67939453 -116.21816406 216.12832031 -116.64648438 215.56054688 C-119.69921875 211.43509467 -119.69921875 211.43509467 -119.69921875 209.16796875 C-120.35921875 209.16796875 -121.01921875 209.16796875 -121.69921875 209.16796875 C-127.03237969 201.76276294 -131.31188441 193.62544775 -134.69921875 185.16796875 C-135.06660156 184.27198975 -135.06660156 184.27198975 -135.44140625 183.35791016 C-143.28060414 163.96850794 -144.22271345 144.903728 -143.69921875 124.16796875 C-143.03921875 124.16796875 -142.37921875 124.16796875 -141.69921875 124.16796875 C-141.68463623 124.86656006 -141.67005371 125.56515137 -141.6550293 126.28491211 C-140.79767174 163.17552317 -132.57536128 192.017793 -108.51171875 220.66796875 C-108.0125293 221.26810791 -107.51333984 221.86824707 -106.99902344 222.48657227 C-104.84228944 225.00312066 -103.08589335 226.93972754 -100.2109375 228.63671875 C-97.76286987 230.12916433 -96.62725001 231.32444557 -94.8515625 233.515625 C-91.74371504 237.28922748 -88.31746388 239.91344796 -84.26171875 242.60546875 C-83.21564453 243.30869263 -83.21564453 243.30869263 -82.1484375 244.02612305 C-70.27436083 251.87742758 -58.09184779 257.44361782 -44.69921875 262.16796875 C-44.09360107 262.41256836 -43.4879834 262.65716797 -42.86401367 262.90917969 C-37.01615212 265.25764601 -31.05105365 266.54077784 -24.88671875 267.79296875 C-23.36208008 268.1178125 -23.36208008 268.1178125 -21.80664062 268.44921875 C-11.86905253 270.50134019 -2.14759482 271.34128993 7.98828125 271.23046875 C8.79716797 271.22595703 9.60605469 271.22144531 10.43945312 271.21679688 C12.39326276 271.20523587 14.34703318 271.18731279 16.30078125 271.16796875 C15.65753906 271.00941406 15.01429688 270.85085938 14.3515625 270.6875 C0.09325908 267.00596944 -11.69901247 261.47161517 -23.7109375 253.05859375 C-26.6500773 251.19905955 -29.29099214 250.09335465 -32.57421875 248.98046875 C-43.55646486 244.90924708 -55.7311916 238.76588064 -64.69921875 231.16796875 C-64.69921875 230.50796875 -64.69921875 229.84796875 -64.69921875 229.16796875 C-65.25996094 228.92304688 -65.82070313 228.678125 -66.3984375 228.42578125 C-73.40421829 224.59579583 -79.14764549 217.95928227 -84.2265625 211.89453125 C-85.67652134 210.13264078 -85.67652134 210.13264078 -87.390625 208.56640625 C-88.69921875 207.16796875 -88.69921875 207.16796875 -88.69921875 205.16796875 C-89.35921875 205.16796875 -90.01921875 205.16796875 -90.69921875 205.16796875 C-99.34762311 193.19937237 -106.0466983 179.4398542 -109.69921875 165.16796875 C-109.99828125 164.100625 -110.29734375 163.03328125 -110.60546875 161.93359375 C-114.80886706 144.73079697 -114.30356379 125.24319166 -109.69921875 108.16796875 C-109.37050781 106.9459375 -109.04179687 105.72390625 -108.703125 104.46484375 C-104.15621955 89.42386933 -96.49345609 76.3665676 -86.69921875 64.16796875 C-86.08820313 63.31976563 -85.4771875 62.4715625 -84.84765625 61.59765625 C-79.2469714 53.99502448 -72.26384207 48.67683471 -64.69921875 43.16796875 C-64.10286621 42.7296875 -63.50651367 42.29140625 -62.89208984 41.83984375 C-52.2171306 34.03992855 -52.2171306 34.03992855 -45.69921875 32.16796875 C-45.69921875 31.50796875 -45.69921875 30.84796875 -45.69921875 30.16796875 C-4.41160638 12.8824851 38.58797901 7.19247275 81.30078125 24.16796875 C85.72573376 26.11817046 90.02428182 28.27511864 94.28125 30.56640625 C97.22595805 32.23478369 97.22595805 32.23478369 100.30078125 33.16796875 C100.63078125 31.84796875 100.96078125 30.52796875 101.30078125 29.16796875 C88.81995009 21.4151701 76.40127616 14.50545154 62.30078125 10.16796875 C61.63191895 9.95543457 60.96305664 9.74290039 60.27392578 9.52392578 C16.92120047 -4.03064788 -30.24707163 1.59204667 -70.28125 22.2734375 C-76.38056979 25.27847572 -76.38056979 25.27847572 -80.69921875 30.16796875 C-82.2578125 31.23828125 -82.2578125 31.23828125 -84.13671875 32.29296875 C-84.75417969 32.64617187 -85.37164062 32.999375 -86.0078125 33.36328125 C-87.69921875 34.16796875 -87.69921875 34.16796875 -89.69921875 34.16796875 C-89.69921875 34.82796875 -89.69921875 35.48796875 -89.69921875 36.16796875 C-92.36160483 38.10424954 -94.93603975 39.82877809 -97.94921875 41.16796875 C-100.22719954 42.46967206 -100.5943332 43.82008696 -101.69921875 46.16796875 C-103.69921875 48.41796875 -103.69921875 48.41796875 -105.69921875 50.16796875 C-106.35921875 50.16796875 -107.01921875 50.16796875 -107.69921875 50.16796875 C-107.94671875 50.70421875 -108.19421875 51.24046875 -108.44921875 51.79296875 C-110.00574412 54.75036695 -111.73357548 57.46520926 -113.69921875 60.16796875 C-114.35921875 60.16796875 -115.01921875 60.16796875 -115.69921875 60.16796875 C-116.81228084 62.3145885 -117.77396043 64.3815164 -118.57421875 66.66796875 C-119.69921875 69.16796875 -119.69921875 69.16796875 -121.47265625 70.77734375 C-124.57530566 74.10860943 -126.39432598 77.88181129 -128.44921875 81.91796875 C-128.86042969 82.71074219 -129.27164063 83.50351562 -129.6953125 84.3203125 C-130.70340109 86.26615791 -131.70441803 88.21530613 -132.69921875 90.16796875 C-133.02921875 90.16796875 -133.35921875 90.16796875 -133.69921875 90.16796875 C-133.21469754 84.47851517 -131.68182448 80.51640739 -128.82421875 75.60546875 C-128.43218262 74.9187207 -128.04014648 74.23197266 -127.63623047 73.52441406 C-123.33008606 66.19774241 -118.09203858 59.71007806 -112.69921875 53.16796875 C-112.13976562 52.3790625 -111.5803125 51.59015625 -111.00390625 50.77734375 C-110.57335937 50.24625 -110.1428125 49.71515625 -109.69921875 49.16796875 C-109.03921875 49.16796875 -108.37921875 49.16796875 -107.69921875 49.16796875 C-107.43109375 48.56984375 -107.16296875 47.97171875 -106.88671875 47.35546875 C-105.70004469 45.16949021 -104.60322762 43.75464281 -102.69921875 42.16796875 C-102.03921875 42.16796875 -101.37921875 42.16796875 -100.69921875 42.16796875 C-100.69921875 41.50796875 -100.69921875 40.84796875 -100.69921875 40.16796875 C-99.3449707 38.87451172 -99.3449707 38.87451172 -97.4375 37.41015625 C-96.73753906 36.87092529 -96.03757813 36.33169434 -95.31640625 35.77612305 C-94.55585938 35.20418213 -93.7953125 34.63224121 -93.01171875 34.04296875 C-92.23441406 33.45620361 -91.45710938 32.86943848 -90.65625 32.26489258 C-64.72878871 12.91258003 -32.66869395 0.04907243 0 0 Z " fill="#030202" transform="translate(340.69921875,278.83203125)"/>
<path d="M0 0 C2.23913574 -0.36749268 2.23913574 -0.36749268 5.06054688 -0.35644531 C6.11504028 -0.35944641 7.16953369 -0.36244751 8.25598145 -0.36553955 C9.39869507 -0.35319275 10.54140869 -0.34084595 11.71875 -0.328125 C13.47197571 -0.32531525 13.47197571 -0.32531525 15.26062012 -0.32244873 C17.73546189 -0.31571666 20.21029282 -0.30177949 22.68505859 -0.28125 C26.48414945 -0.25012984 30.28282565 -0.24028433 34.08203125 -0.234375 C36.48177592 -0.22520405 38.88151635 -0.21482799 41.28125 -0.203125 C42.42396362 -0.19887512 43.56667725 -0.19462524 44.74401855 -0.19024658 C46.32575867 -0.17583527 46.32575867 -0.17583527 47.93945312 -0.16113281 C49.33605164 -0.15089081 49.33605164 -0.15089081 50.76086426 -0.14044189 C53 0 53 0 55 1 C56.3040469 4.47470724 56.13322091 8.01686475 56.125 11.6875 C56.12886719 13.42580078 56.12886719 13.42580078 56.1328125 15.19921875 C56 18 56 18 55 19 C53.22008076 19.09370624 51.43643261 19.11744271 49.65405273 19.11352539 C48.5129454 19.11344986 47.37183807 19.11337433 46.19615173 19.11329651 C44.9545076 19.10813522 43.71286346 19.10297394 42.43359375 19.09765625 C40.53795433 19.09553383 40.53795433 19.09553383 38.60401917 19.09336853 C35.23875111 19.08870582 31.8735501 19.0797148 28.50830078 19.06866455 C25.0765033 19.05844846 21.64469891 19.05387049 18.21289062 19.04882812 C11.47524176 19.0377738 4.73762475 19.0210171 -2 19 C-2.05394705 16.39555652 -2.09364469 13.79223002 -2.125 11.1875 C-2.14175781 10.44951172 -2.15851563 9.71152344 -2.17578125 8.95117188 C-2.21074628 5.08753574 -2.19397555 3.29096332 0 0 Z " fill="#221F20" transform="translate(325,233)"/>
<path d="M0 0 C2.7267859 1.93706102 3.0269729 3.13516754 3.6953125 6.484375 C3.85196127 7.90483418 3.99469658 9.32688225 4.125 10.75 C4.19847656 11.42160156 4.27195312 12.09320313 4.34765625 12.78515625 C5.69779147 25.74171708 6.20727528 38.67133698 6.1875 51.6875 C6.18689575 52.43078552 6.1862915 53.17407104 6.18566895 53.93988037 C6.15974764 65.74007954 5.67516254 77.31119178 4 89 C3.82259277 90.36946777 3.82259277 90.36946777 3.64160156 91.76660156 C-0.85235272 126.06016106 -13.65444861 158.11938155 -38 183 C-38.64582031 183.68449219 -39.29164063 184.36898437 -39.95703125 185.07421875 C-41.25653863 186.43063887 -42.61970445 187.72588103 -44 189 C-44.66 189 -45.32 189 -46 189 C-46 189.66 -46 190.32 -46 191 C-48.3359375 192.69140625 -48.3359375 192.69140625 -51.375 194.5625 C-52.37273437 195.18253906 -53.37046875 195.80257812 -54.3984375 196.44140625 C-55.90395068 197.34335784 -57.43026458 198.21513229 -59 199 C-59.8125 197.3125 -59.8125 197.3125 -60 195 C-57.9375 192.75 -57.9375 192.75 -56.5390625 191.50390625 C-54.11153649 189.13183134 -52.27451829 186.34700367 -50.33203125 183.57421875 C-49.89246094 183.05472656 -49.45289063 182.53523437 -49 182 C-48.34 182 -47.68 182 -47 182 C-46.75507813 181.30519531 -46.51015625 180.61039063 -46.2578125 179.89453125 C-44.80910647 176.56070776 -42.90079393 173.68490492 -40.875 170.6875 C-29.79500536 153.7911236 -21.74386089 134.70303357 -16.54614258 115.20336914 C-15.19218278 110.19218278 -15.19218278 110.19218278 -13 108 C-10.590802 115.22759401 -15.93164913 125.3536489 -18.82421875 132.2109375 C-19.73595849 134.37366899 -20.60649822 136.53979013 -21.45703125 138.7265625 C-26.80092092 152.31048895 -32.97050178 167.40050698 -42 179 C-42.66 179 -43.32 179 -44 179 C-44.66 180.65 -45.32 182.3 -46 184 C-46.66 184 -47.32 184 -48 184 C-48.28875 184.598125 -48.5775 185.19625 -48.875 185.8125 C-50 188 -50 188 -52 191 C-50.72689688 190.06558465 -49.456612 189.12732889 -48.1875 188.1875 C-47.47980469 187.66542969 -46.77210938 187.14335938 -46.04296875 186.60546875 C-43.99125475 185.06893533 -43.99125475 185.06893533 -42.36328125 183.30078125 C-41 182 -41 182 -39 182 C-38.01 180.02 -38.01 180.02 -37 178 C-36.34 178 -35.68 178 -35 178 C-34.72414063 177.41089844 -34.44828125 176.82179688 -34.1640625 176.21484375 C-33.05548562 174.10557163 -31.85675906 172.42090731 -30.375 170.5625 C-19.90588139 156.78198134 -12.41673338 141.38005335 -7 125 C-6.75773682 124.30962646 -6.51547363 123.61925293 -6.26586914 122.90795898 C-4.4126885 117.56020915 -3.052918 112.233242 -1.9375 106.6875 C-1.76758545 105.85718262 -1.5976709 105.02686523 -1.42260742 104.17138672 C1.85921301 87.96552738 3.17295319 72.2330765 3.13037109 55.71777344 C3.12503812 53.26751431 3.13033532 50.8174409 3.13671875 48.3671875 C3.14066516 37.87761963 2.7372875 27.46310052 2 17 C1.94247559 17.91080322 1.88495117 18.82160645 1.82568359 19.76000977 C1.4140625 26.27734375 1.4140625 26.27734375 1 29 C0.01 29.495 0.01 29.495 -1 30 C-1.02465746 25.8882744 -1.04283959 21.77657722 -1.05493164 17.66479492 C-1.0599708 16.26504772 -1.06680216 14.8653058 -1.07543945 13.46557617 C-1.0875232 11.45754223 -1.09269807 9.44947043 -1.09765625 7.44140625 C-1.10289307 6.23170166 -1.10812988 5.02199707 -1.11352539 3.77563477 C-1 1 -1 1 0 0 Z " fill="#030203" transform="translate(471,327)"/>
<path d="M0 0 C1.60138494 -0.01654759 3.20269637 -0.04382244 4.80371094 -0.08203125 C7.11684327 -0.13692965 9.42824647 -0.15869153 11.74194336 -0.17333984 C12.45357132 -0.19600922 13.16519928 -0.21867859 13.89839172 -0.24203491 C17.88649275 -0.22516787 19.43223314 0.2107662 22.52587891 2.8203125 C23.20948486 3.6551416 23.89309082 4.4899707 24.59741211 5.35009766 C25.09241211 5.84509766 25.09241211 5.84509766 25.59741211 6.35009766 C25.69572357 7.84879814 25.72539667 9.35208304 25.72680664 10.85400391 C25.7299588 11.81169678 25.73311096 12.76938965 25.73635864 13.75610352 C25.73433441 14.79774658 25.73231018 15.83938965 25.73022461 16.91259766 C25.73118134 17.97422119 25.73213806 19.03584473 25.73312378 20.12963867 C25.73380575 22.37923237 25.7319503 24.62882802 25.7277832 26.87841797 C25.72243521 30.33516837 25.72772765 33.79178883 25.73413086 37.24853516 C25.73347008 39.42822295 25.73218892 41.60791065 25.73022461 43.78759766 C25.73224884 44.82924072 25.73427307 45.87088379 25.73635864 46.9440918 C25.7316304 48.3806311 25.7316304 48.3806311 25.72680664 49.84619141 C25.72601105 50.69366943 25.72521545 51.54114746 25.72439575 52.41430664 C25.59741211 54.35009766 25.59741211 54.35009766 24.59741211 55.35009766 C23.22131329 55.44805077 21.84027329 55.47807854 20.46069336 55.47949219 C19.14427856 55.48422043 19.14427856 55.48422043 17.80126953 55.48904419 C16.84712158 55.48701996 15.89297363 55.48499573 14.90991211 55.48291016 C13.45065308 55.48434525 13.45065308 55.48434525 11.96191406 55.48580933 C9.90063411 55.48649124 7.83935202 55.48463618 5.77807617 55.48046875 C2.61103523 55.47512066 -0.55586389 55.48041338 -3.72290039 55.48681641 C-5.72029654 55.48615563 -7.7176926 55.48487447 -9.71508789 55.48291016 C-10.66923584 55.48493439 -11.62338379 55.48695862 -12.60644531 55.48904419 C-13.48405518 55.48589203 -14.36166504 55.48273987 -15.26586914 55.47949219 C-16.0422876 55.47869659 -16.81870605 55.477901 -17.61865234 55.4770813 C-19.40258789 55.35009766 -19.40258789 55.35009766 -20.40258789 54.35009766 C-20.51645715 52.87316203 -20.56213573 51.39088382 -20.57958984 49.90966797 C-20.59242508 48.96488586 -20.60526031 48.02010376 -20.6184845 47.04669189 C-20.62587143 46.01759705 -20.63325836 44.9885022 -20.64086914 43.92822266 C-20.64894089 42.87608582 -20.65701263 41.82394897 -20.66532898 40.7399292 C-20.67919012 38.50713763 -20.68990314 36.27432469 -20.69775391 34.04150391 C-20.71494567 30.62833312 -20.75881198 27.21613586 -20.80297852 23.80322266 C-20.81310674 21.63656313 -20.82162244 19.46989535 -20.82836914 17.30322266 C-20.84587723 16.28222473 -20.86338531 15.26122681 -20.88142395 14.20928955 C-20.85970138 7.10058774 -20.85970138 7.10058774 -18.50097656 3.22802734 C-13.5170032 -1.23232438 -6.36699105 0.04822984 0 0 Z M-16.08032227 4.22119141 C-19.42761812 8.73117287 -19.03493859 12.42767358 -18.89086914 17.90087891 C-18.8837944 18.91482224 -18.87671967 19.92876556 -18.86943054 20.97343445 C-18.84149801 24.20391396 -18.77875952 27.43264427 -18.71508789 30.66259766 C-18.69000364 32.85593196 -18.6671907 35.04929349 -18.64672852 37.24267578 C-18.59593063 42.61302824 -18.49807264 47.97961121 -18.40258789 53.35009766 C-4.54258789 53.35009766 9.31741211 53.35009766 23.59741211 53.35009766 C23.71227977 46.88943001 23.81179645 40.43231127 23.87207031 33.97143555 C23.8971972 31.77437326 23.93130457 29.57739441 23.97460938 27.38061523 C24.03533973 24.22049361 24.06364044 21.06147808 24.08569336 17.90087891 C24.11149979 16.92049149 24.13730621 15.94010406 24.16389465 14.93000793 C24.16581167 10.2570679 24.12956174 8.06708985 21.27514648 4.22119141 C17.87507411 1.84535674 15.89072411 1.83023341 11.78491211 2.03759766 C10.04274414 2.10527344 10.04274414 2.10527344 8.26538086 2.17431641 C6.94473633 2.26132813 6.94473633 2.26132813 5.59741211 2.35009766 C5.59741211 3.01009766 5.59741211 3.67009766 5.59741211 4.35009766 C6.91741211 4.68009766 8.23741211 5.01009766 9.59741211 5.35009766 C9.76614688 6.78735637 9.93231948 8.22491603 10.09741211 9.66259766 C10.19022461 10.46310547 10.28303711 11.26361328 10.37866211 12.08837891 C10.59741211 14.35009766 10.59741211 14.35009766 10.59741211 17.35009766 C9.93741211 17.35009766 9.27741211 17.35009766 8.59741211 17.35009766 C8.20553711 17.86572266 7.81366211 18.38134766 7.40991211 18.91259766 C5.59741211 20.35009766 5.59741211 20.35009766 2.09741211 20.16259766 C-1.40258789 19.35009766 -1.40258789 19.35009766 -4.40258789 17.35009766 C-5.37560229 13.05261739 -5.56329353 9.60601833 -4.40258789 5.35009766 C-3.08258789 5.02009766 -1.76258789 4.69009766 -0.40258789 4.35009766 C-0.40258789 3.69009766 -0.40258789 3.03009766 -0.40258789 2.35009766 C-2.46324893 2.21432936 -4.52651546 2.11775863 -6.59008789 2.03759766 C-8.31291992 1.95058594 -8.31291992 1.95058594 -10.07055664 1.86181641 C-13.48120472 2.10755482 -13.48120472 2.10755482 -16.08032227 4.22119141 Z M-4.40258789 9.35009766 C-5.37135846 11.38253313 -5.37135846 11.38253313 -5.40258789 13.35009766 C-4.74258789 14.01009766 -4.08258789 14.67009766 -3.40258789 15.35009766 C-2.74258789 13.37009766 -2.08258789 11.39009766 -1.40258789 9.35009766 C4.34741211 8.22509766 4.34741211 8.22509766 6.59741211 9.35009766 C7.32435115 11.32898726 7.99557462 13.32964323 8.59741211 15.35009766 C8.92741211 15.35009766 9.25741211 15.35009766 9.59741211 15.35009766 C9.91893726 11.81332102 10.01053131 9.95388726 7.97241211 6.97509766 C2.99362818 3.56856128 -0.90364417 4.68483936 -4.40258789 9.35009766 Z " fill="#0C090B" transform="translate(349.402587890625,175.64990234375)"/>
<path d="M0 0 C0 0.99 0 1.98 0 3 C-1.609375 4.2109375 -1.609375 4.2109375 -3.75 5.375 C-7.99092815 7.85950835 -10.77645357 10.55290713 -13 15 C-13.66 15 -14.32 15 -15 15 C-13.80086322 10.60316512 -12.5711885 7.90159066 -9 5 C-8.34 5 -7.68 5 -7 5 C-7 4.34 -7 3.68 -7 3 C-18.01057391 2.22732815 -32.05894049 5.18401626 -41 12 C-43.32869363 14.71548007 -45.34673823 17.48667831 -47.30859375 20.4765625 C-48.74854065 22.62484355 -50.0167209 24.35371262 -52 26 C-52.66 26 -53.32 26 -54 26 C-54.495 27.485 -54.495 27.485 -55 29 C-55.66 29 -56.32 29 -57 29 C-57 29.66 -57 30.32 -57 31 C-59.10844633 32.835518 -61.22094372 34.553725 -63.4375 36.25 C-64.08203125 36.74725586 -64.7265625 37.24451172 -65.390625 37.75683594 C-74.46753573 44.7100406 -83.71764448 50.05627857 -94 55 C-83.69742775 55.38715303 -76.26564673 54.76845173 -68.13671875 48.015625 C-65.3688113 45.4045825 -62.9476351 42.59722218 -60.60546875 39.6015625 C-58.76812981 37.76869397 -57.53238456 37.38452694 -55 37 C-55 36.34 -55 35.68 -55 35 C-52.77236012 34.18309823 -50.5430514 33.37138128 -48.3125 32.5625 C-47.68666016 32.33240234 -47.06082031 32.10230469 -46.41601562 31.86523438 C-40.19161038 29.61662724 -34.66324342 28.77943236 -28.0625 28.6875 C-27.37220703 28.65849609 -26.68191406 28.62949219 -25.97070312 28.59960938 C-19.96952834 28.52566125 -16.57909085 30.49442243 -12.35546875 34.59765625 C-8.38406787 39.5785102 -7.77617736 43.29258514 -7.6875 49.5 C-7.64399414 50.51513672 -7.64399414 50.51513672 -7.59960938 51.55078125 C-7.55834936 54.76906268 -7.54779214 56.51731727 -9.796875 58.91796875 C-12.87708257 60.43076573 -15.5872242 60.81384859 -19 61 C-20.485 60.01 -20.485 60.01 -22 59 C-18.7 58.34 -15.4 57.68 -12 57 C-9.49024484 50.72561209 -9.8884505 45.41395551 -12 39 C-14.60608749 35.63951876 -17.06480245 33.54334573 -21 32 C-34.02111332 30.72603442 -46.29147654 32.61125468 -57.12890625 40.40625 C-59.80284444 42.68384245 -61.83363724 45.24281104 -64 48 C-64.66 48 -65.32 48 -66 48 C-66.2784375 48.86625 -66.2784375 48.86625 -66.5625 49.75 C-69.68963695 54.64464913 -75.24678028 56.32126745 -80.66357422 57.61181641 C-85.09138665 58.34747176 -89.52491253 58.20524295 -94 58.125 C-94.96550781 58.11597656 -95.93101562 58.10695313 -96.92578125 58.09765625 C-99.28412099 58.07430635 -101.64192286 58.04156047 -104 58 C-103.67 57.01 -103.34 56.02 -103 55 C-100.58268076 53.98075718 -98.23610712 53.12478397 -95.75 52.3125 C-86.91316642 49.23073876 -79.18044586 45.03024197 -71.765625 39.26171875 C-70 38 -70 38 -68 38 C-68 37.34 -68 36.68 -68 36 C-66.42578125 34.703125 -66.42578125 34.703125 -64.3125 33.25 C-60.49325548 30.48642694 -57.90735061 27.69312104 -55 24 C-53.33333333 22.33333333 -51.66666667 20.66666667 -50 19 C-49.443125 18.236875 -48.88625 17.47375 -48.3125 16.6875 C-47.879375 16.130625 -47.44625 15.57375 -47 15 C-46.34 15 -45.68 15 -45 15 C-44.773125 14.236875 -44.54625 13.47375 -44.3125 12.6875 C-41.67355927 7.2839547 -35.38872364 5.85089205 -30.01171875 3.984375 C-19.67043448 0.60434434 -10.81446757 -0.3988943 0 0 Z " fill="#020202" transform="translate(508,490)"/>
<path d="M0 0 C0.81411346 -0.00095673 1.62822693 -0.00191345 2.4670105 -0.00289917 C4.17283201 -0.00357426 5.8786562 -0.00176729 7.58447266 0.00244141 C10.18007205 0.0078133 12.77549954 0.00246631 15.37109375 -0.00390625 C17.03906288 -0.00324562 18.7070319 -0.00196477 20.375 0 C21.52526169 -0.00303635 21.52526169 -0.00303635 22.69876099 -0.00613403 C27.25060941 0.01348844 31.56304699 0.38605965 36.0546875 1.1328125 C36.3846875 2.1228125 36.7146875 3.1128125 37.0546875 4.1328125 C36.48137695 4.07222656 35.90806641 4.01164062 35.31738281 3.94921875 C32.64710466 3.67073005 29.97594334 3.40175526 27.3046875 3.1328125 C25.95310547 2.98972656 25.95310547 2.98972656 24.57421875 2.84375 C-10.24068705 -0.61304916 -51.10950833 7.31413774 -79.9453125 28.1328125 C-80.2753125 28.7928125 -80.6053125 29.4528125 -80.9453125 30.1328125 C-82.50390625 31.203125 -82.50390625 31.203125 -84.3828125 32.2578125 C-85.00027344 32.61101562 -85.61773437 32.96421875 -86.25390625 33.328125 C-87.9453125 34.1328125 -87.9453125 34.1328125 -89.9453125 34.1328125 C-89.9453125 34.7928125 -89.9453125 35.4528125 -89.9453125 36.1328125 C-92.60769858 38.06909329 -95.1821335 39.79362184 -98.1953125 41.1328125 C-100.47329329 42.43451581 -100.84042695 43.78493071 -101.9453125 46.1328125 C-103.9453125 48.3828125 -103.9453125 48.3828125 -105.9453125 50.1328125 C-106.6053125 50.1328125 -107.2653125 50.1328125 -107.9453125 50.1328125 C-108.1928125 50.6690625 -108.4403125 51.2053125 -108.6953125 51.7578125 C-110.25183787 54.7152107 -111.97966923 57.43005301 -113.9453125 60.1328125 C-114.6053125 60.1328125 -115.2653125 60.1328125 -115.9453125 60.1328125 C-117.05837459 62.27943225 -118.02005418 64.34636015 -118.8203125 66.6328125 C-119.9453125 69.1328125 -119.9453125 69.1328125 -121.71875 70.7421875 C-124.82139941 74.07345318 -126.64041973 77.84665504 -128.6953125 81.8828125 C-129.10652344 82.67558594 -129.51773438 83.46835937 -129.94140625 84.28515625 C-130.94949484 86.23100166 -131.95051178 88.18014988 -132.9453125 90.1328125 C-133.2753125 90.1328125 -133.6053125 90.1328125 -133.9453125 90.1328125 C-133.46079129 84.44335892 -131.92791823 80.48125114 -129.0703125 75.5703125 C-128.67827637 74.88356445 -128.28624023 74.19681641 -127.88232422 73.48925781 C-123.57617981 66.16258616 -118.33813233 59.67492181 -112.9453125 53.1328125 C-112.38585937 52.34390625 -111.82640625 51.555 -111.25 50.7421875 C-110.81945312 50.21109375 -110.38890625 49.68 -109.9453125 49.1328125 C-109.2853125 49.1328125 -108.6253125 49.1328125 -107.9453125 49.1328125 C-107.543125 48.235625 -107.543125 48.235625 -107.1328125 47.3203125 C-105.94613844 45.13433396 -104.84932137 43.71948656 -102.9453125 42.1328125 C-102.2853125 42.1328125 -101.6253125 42.1328125 -100.9453125 42.1328125 C-100.9453125 41.4728125 -100.9453125 40.8128125 -100.9453125 40.1328125 C-99.59106445 38.83935547 -99.59106445 38.83935547 -97.68359375 37.375 C-96.98363281 36.83576904 -96.28367188 36.29653809 -95.5625 35.7409668 C-94.80195313 35.16902588 -94.04140625 34.59708496 -93.2578125 34.0078125 C-92.48050781 33.42104736 -91.70320313 32.83428223 -90.90234375 32.22973633 C-64.9223971 12.8382486 -32.74439023 -0.08689413 0 0 Z " fill="#0B0909" transform="translate(340.9453125,278.8671875)"/>
<path d="M0 0 C2.79757781 3.84089891 2.65197232 6.79540549 2.0625 11.4375 C0.42562815 15.02302881 -0.62722583 16.23065055 -3.9375 18.4375 C-8.71249248 19.30154626 -12.17378459 18.82605696 -16.5 16.625 C-19.1768014 14.01549249 -19.43714043 11.60076155 -19.625 7.9375 C-19.40409466 3.93965223 -19.09375812 2.65452516 -16.6875 -0.6875 C-10.98591193 -4.57494641 -5.42885798 -4.73581228 0 0 Z M-8.9375 -0.5625 C-11.1866908 1.26453227 -11.1866908 1.26453227 -11.1875 3.9375 C-11.1866908 6.61046773 -11.1866908 6.61046773 -8.9375 8.4375 C-5.63066534 8.14766731 -5.63066534 8.14766731 -2.9375 6.4375 C-2.6874227 3.97940002 -2.6874227 3.97940002 -2.9375 1.4375 C-3.5975 0.7775 -4.2575 0.1175 -4.9375 -0.5625 C-6.2575 -0.5625 -7.5775 -0.5625 -8.9375 -0.5625 Z " fill="#030202" transform="translate(531.9375,434.5625)"/>
<path d="M0 0 C2.90572497 1.71108001 3.35905271 2.8312742 5 6 C5.77744438 9.94880165 5.36774029 13.15419734 3.75 16.875 C0.74229055 20.52721861 -1.14871756 20.90388747 -5.875 21.4375 C-9.52181566 21.30091514 -12.20036662 20.43016315 -14.92578125 17.82421875 C-17.2766963 13.83193756 -16.8461729 9.40935409 -16 5 C-12.46931413 -1.20913723 -6.49903485 -1.35437158 0 0 Z M-7 2 C-8.21297649 4.2806707 -8.21297649 4.2806707 -9 7 C-8.23396041 9.2857711 -8.23396041 9.2857711 -7 11 C-4.58354218 11.16687448 -4.58354218 11.16687448 -2 11 C0.2491908 9.17296773 0.2491908 9.17296773 0.25 6.5 C0.2491908 3.82703227 0.2491908 3.82703227 -2 2 C-4.58354218 1.83312552 -4.58354218 1.83312552 -7 2 Z " fill="#010101" transform="translate(360,509)"/>
<path d="M0 0 C2.23913574 -0.36749268 2.23913574 -0.36749268 5.06054688 -0.35644531 C6.11504028 -0.35944641 7.16953369 -0.36244751 8.25598145 -0.36553955 C9.39869507 -0.35319275 10.54140869 -0.34084595 11.71875 -0.328125 C13.47197571 -0.32531525 13.47197571 -0.32531525 15.26062012 -0.32244873 C17.73546189 -0.31571666 20.21029282 -0.30177949 22.68505859 -0.28125 C26.48414945 -0.25012984 30.28282565 -0.24028433 34.08203125 -0.234375 C36.48177592 -0.22520405 38.88151635 -0.21482799 41.28125 -0.203125 C42.42396362 -0.19887512 43.56667725 -0.19462524 44.74401855 -0.19024658 C46.32575867 -0.17583527 46.32575867 -0.17583527 47.93945312 -0.16113281 C49.33605164 -0.15089081 49.33605164 -0.15089081 50.76086426 -0.14044189 C53 0 53 0 55 1 C56.3040469 4.47470724 56.13322091 8.01686475 56.125 11.6875 C56.12886719 13.42580078 56.12886719 13.42580078 56.1328125 15.19921875 C56 18 56 18 55 19 C53.22008076 19.09370624 51.43643261 19.11744271 49.65405273 19.11352539 C48.5129454 19.11344986 47.37183807 19.11337433 46.19615173 19.11329651 C44.9545076 19.10813522 43.71286346 19.10297394 42.43359375 19.09765625 C40.53795433 19.09553383 40.53795433 19.09553383 38.60401917 19.09336853 C35.23875111 19.08870582 31.8735501 19.0797148 28.50830078 19.06866455 C25.0765033 19.05844846 21.64469891 19.05387049 18.21289062 19.04882812 C11.47524176 19.0377738 4.73762475 19.0210171 -2 19 C-2.05394705 16.39555652 -2.09364469 13.79223002 -2.125 11.1875 C-2.14175781 10.44951172 -2.15851563 9.71152344 -2.17578125 8.95117188 C-2.21074628 5.08753574 -2.19397555 3.29096332 0 0 Z M0 4 C0 8.29 0 12.58 0 17 C17.82 17 35.64 17 54 17 C54 12.71 54 8.42 54 4 C50.77450047 1.84966698 49.90913972 1.74810414 46.19311523 1.74121094 C45.21878036 1.73490662 44.2444455 1.72860229 43.24058533 1.72210693 C41.6654995 1.72817963 41.6654995 1.72817963 40.05859375 1.734375 C38.44066673 1.73150482 38.44066673 1.73150482 36.79005432 1.72857666 C34.50952928 1.72721528 32.22899649 1.73090841 29.94848633 1.73925781 C26.44790345 1.74996817 22.94783259 1.73935535 19.44726562 1.7265625 C17.23437386 1.7278839 15.02148242 1.73044588 12.80859375 1.734375 C11.23047157 1.72830231 11.23047157 1.72830231 9.62046814 1.72210693 C8.64928543 1.72841125 7.67810272 1.73471558 6.67749023 1.74121094 C5.82050034 1.74280212 4.96351044 1.74439331 4.08055115 1.74603271 C1.77908408 1.8101038 1.77908408 1.8101038 0 4 Z " fill="#0B0809" transform="translate(325,233)"/>
<path d="M0 0 C0.66 0.33 1.32 0.66 2 1 C2 1.66 2 2.32 2 3 C1.34 3 0.68 3 0 3 C0 10.59 0 18.18 0 26 C1.98 25.34 3.96 24.68 6 24 C29.8378962 19.45677743 54.35817238 21.6490709 78 26 C77.89047884 22.20771856 77.75976759 18.4164616 77.625 14.625 C77.5940625 13.54476563 77.563125 12.46453125 77.53125 11.3515625 C77.49257813 10.3203125 77.45390625 9.2890625 77.4140625 8.2265625 C77.3826416 7.27346191 77.3512207 6.32036133 77.31884766 5.33837891 C77.21444204 2.81104824 77.21444204 2.81104824 75 1 C75.99 0.67 76.98 0.34 78 0 C80.29755922 3.44633882 80.23643976 4.71068391 80.1953125 8.76171875 C80.18886719 9.87998047 80.18242187 10.99824219 80.17578125 12.15039062 C80.15064453 13.90125977 80.15064453 13.90125977 80.125 15.6875 C80.11597656 16.86634766 80.10695313 18.04519531 80.09765625 19.25976562 C80.07406423 22.17338026 80.0411454 25.08658892 80 28 C74.60029132 27.60311619 69.33263989 27.11856409 64.0390625 25.95703125 C56.42565096 24.50537864 48.73685112 24.66497285 41.01416016 24.68432617 C38.40093536 24.68746881 35.78886549 24.66402012 33.17578125 24.63867188 C23.2901564 24.60330855 13.98398495 25.36358584 4.29541016 27.35473633 C1 28 1 28 -2 28 C-2.05783842 23.70838953 -2.0935412 19.41687855 -2.125 15.125 C-2.14175781 13.90167969 -2.15851563 12.67835938 -2.17578125 11.41796875 C-2.18222656 10.25136719 -2.18867188 9.08476562 -2.1953125 7.8828125 C-2.20578613 6.80402832 -2.21625977 5.72524414 -2.22705078 4.61376953 C-2 2 -2 2 0 0 Z " fill="#020101" transform="translate(313,253)"/>
<path d="M0 0 C2.15473282 2.28940362 2.90472455 3.83113291 3.16015625 6.96484375 C2.96811568 11.08987511 2.3710502 12.6289498 -0.625 15.625 C-4 17 -4 17 -7.6875 16.4375 C-10.70901259 15.12627755 -12.03672152 14.509279 -14 12 C-14.6228087 8.95328717 -14.50943248 6.06213218 -14 3 C-9.96799782 -2.56138232 -6.10319796 -2.39768491 0 0 Z M-6 7 C-7.10836423 8.88316159 -7.10836423 8.88316159 -8 11 C-7.67 11.66 -7.34 12.32 -7 13 C-5.35 13 -3.7 13 -2 13 C-1.3185177 11.10820797 -1.3185177 11.10820797 -1 9 C-1.66 8.34 -2.32 7.68 -3 7 C-3.99 7 -4.98 7 -6 7 Z " fill="#020202" transform="translate(536,458)"/>
<path d="M0 0 C6.99287591 0.38849311 11.91497227 2.63583389 18 6 C18.9075 6.433125 19.815 6.86625 20.75 7.3125 C26.26649654 11.4498724 29.92400365 17.18535644 31 24 C31.09069498 30.91873102 28.79981837 36.76226513 26 43 C25.34 43 24.68 43 24 43 C23.75121094 43.75796875 23.50242187 44.5159375 23.24609375 45.296875 C21.13584495 49.8745934 17.46905439 51.90471634 13 54 C1.53500673 56.79317116 -8.2086113 52.92002424 -18 47 C-18.66 46.01 -19.32 45.02 -20 44 C-17.75 43.75 -17.75 43.75 -15 44 C-14.1646875 44.86625 -14.1646875 44.86625 -13.3125 45.75 C-8.42623069 50.50420797 -2.01936504 52.24133303 4.6875 52.5 C9.84612842 52.32463586 12.77915543 50.87376651 17 48 C17.66 48 18.32 48 19 48 C19 47.34 19 46.68 19 46 C19.66 46 20.32 46 21 46 C27.77385152 33.53151147 27.77385152 33.53151147 27.3359375 19.91015625 C25.01617316 14.4940108 21.85749156 12.17605218 17 9 C17 8.34 17 7.68 17 7 C16.30519531 6.88785156 15.61039062 6.77570313 14.89453125 6.66015625 C11.62967036 5.91553885 8.76399795 4.75599912 5.6875 3.4375 C4.61886719 2.98246094 3.55023438 2.52742188 2.44921875 2.05859375 C1.23685547 1.53458984 1.23685547 1.53458984 0 1 C0 0.67 0 0.34 0 0 Z " fill="#030203" transform="translate(495,505)"/>
<path d="M0 0 C2.0625 2.6875 2.0625 2.6875 3 6 C2.375 9.25 2.375 9.25 1 12 C-2.48868651 14.32579101 -3.89718519 14.41865457 -8 14 C-10.3125 12.9375 -10.3125 12.9375 -12 11 C-13.01516295 7.27773583 -13.57935468 5.10077389 -11.75 1.625 C-8.08667293 -1.77666085 -4.57252267 -1.22478286 0 0 Z M-10 4 C-9.67 5.32 -9.34 6.64 -9 8 C-7.68 7.67 -6.36 7.34 -5 7 C-5.33 5.68 -5.66 4.36 -6 3 C-8.0745356 2.8509288 -8.0745356 2.8509288 -10 4 Z " fill="#030303" transform="translate(381,479)"/>
<path d="M0 0 C2.9375 0.5625 2.9375 0.5625 5.3125 2.0625 C7.76233134 5.83147129 7.5034239 8.10584931 6.9375 12.5625 C4.66827752 15.46710477 3.08754537 15.54106495 -0.5625 16.0625 C-4.0625 15.5625 -4.0625 15.5625 -6.5 13.375 C-8.21920505 10.2804309 -8.83856042 9.0116574 -8.0625 5.5625 C-5.56365585 2.25520628 -4.11879585 0.75651352 0 0 Z M-4.0625 4.5625 C-4.3925 5.8825 -4.7225 7.2025 -5.0625 8.5625 C-3.5775 9.5525 -3.5775 9.5525 -2.0625 10.5625 C-0.95413577 8.67933841 -0.95413577 8.67933841 -0.0625 6.5625 C-0.3925 5.9025 -0.7225 5.2425 -1.0625 4.5625 C-2.0525 4.5625 -3.0425 4.5625 -4.0625 4.5625 Z " fill="#040303" transform="translate(503.0625,452.4375)"/>
<path d="M0 0 C2 1 2 1 3 3 C3.39309578 6.09562931 3.62338668 8.04336605 3 11 C0.9375 13.5625 0.9375 13.5625 -2 15 C-5.625 15.0625 -5.625 15.0625 -9 14 C-11.59393856 11.1628797 -12.02858292 9.71457298 -11.875 5.875 C-9.92055907 -0.54673449 -6.1939434 -0.90328341 0 0 Z M-8 4 C-8.33 4.99 -8.66 5.98 -9 7 C-8.67 7.66 -8.34 8.32 -8 9 C-7.01 9 -6.02 9 -5 9 C-4.67 7.35 -4.34 5.7 -4 4 C-5.32 4 -6.64 4 -8 4 Z " fill="#040404" transform="translate(354,488)"/>
<path d="M0 0 C0.33 0 0.66 0 1 0 C2.04831036 7.73483052 1.86738499 14.63016711 0.59765625 22.32421875 C-0.01040087 26.06396877 -0.45160298 29.79769946 -0.875 33.5625 C-2.50129597 47.163789 -4.95107853 60.90235253 -9 74 C-9.66 74 -10.32 74 -11 74 C-10.66748659 68.8173772 -10.05687697 63.89108737 -8.6875 58.875 C-3.67850459 39.66977856 -1.90665884 19.69921256 0 0 Z " fill="#040404" transform="translate(469,360)"/>
<path d="M0 0 C2 1 2 1 3.0625 4 C3.371875 4.99 3.68125 5.98 4 7 C4.33 7.33 4.66 7.66 5 8 C9.82947756 7.71884585 9.82947756 7.71884585 13.9375 5.4375 C14.4634375 4.7259375 14.4634375 4.7259375 15 4 C15.48404255 10.29255319 15.48404255 10.29255319 13.375 13.375 C10.43721938 15.38506043 8.5603504 15.92733979 5 16 C1.35999635 14.39162629 -1.05140576 12.48695811 -3 9 C-3.48721029 5.75193139 -3.2993237 4.46145738 -1.5 1.6875 C-1.005 1.130625 -0.51 0.57375 0 0 Z " fill="#1F1E1E" transform="translate(517,436)"/>
<path d="M0 0 C0.66 0 1.32 0 2 0 C2.37125 1.134375 2.7425 2.26875 3.125 3.4375 C3.88351619 5.36858464 3.88351619 5.36858464 5 7 C7.93503351 8.32294477 7.93503351 8.32294477 11 8 C12.81299492 6.77045984 12.81299492 6.77045984 14 5 C14.66 4.34 15.32 3.68 16 3 C16.30495508 6.88817732 16.29233945 9.4026107 14.5625 12.9375 C11.32679715 15.54184619 9.27604462 15.78363947 5.1953125 15.5546875 C2.68821673 14.92122202 1.66253093 14.21496268 -0.0625 12.3125 C-2.00396944 8.99321354 -2.68416809 7.71405534 -2 4 C-1 1.6875 -1 1.6875 0 0 Z " fill="#1F1E1E" transform="translate(347,513)"/>
<path d="M0 0 C1.8125 1.1875 1.8125 1.1875 3 3 C3.39831203 6.18649624 3.60548083 8.1220528 1.75 10.8125 C-0.28823936 12.19559099 -1.53653608 12.78263554 -4 13 C-7.7810303 11.91970563 -8.76204175 11.35693737 -11 8 C-10.65358161 4.53581611 -9.96713413 2.95070119 -8 0 C-4.65044556 -1.11651815 -3.32740404 -0.99822121 0 0 Z M-3 5 C-3 6.32 -3 7.64 -3 9 C-2.01 8.67 -1.02 8.34 0 8 C-0.33 7.01 -0.66 6.02 -1 5 C-1.66 5 -2.32 5 -3 5 Z " fill="#060405" transform="translate(380,503)"/>
<path d="M0 0 C2 2 2 2 2.375 5.375 C2 9 2 9 0.375 11.5 C-2 13 -2 13 -5.0625 12.9375 C-9.41903019 11.54711802 -9.41903019 11.54711802 -11 9 C-11.38601984 5.91184125 -11.47901666 3.89815624 -10 1.125 C-6.66094446 -0.75321874 -3.79001126 -0.30079454 0 0 Z M-4 5 C-3.67 6.32 -3.34 7.64 -3 9 C-2.01 8.67 -1.02 8.34 0 8 C0 7.01 0 6.02 0 5 C-1.32 5 -2.64 5 -4 5 Z " fill="#030303" transform="translate(524,474)"/>
<path d="M0 0 C0.125 3.375 0.125 3.375 0 7 C-2 9 -2 9 -4.9375 9.375 C-8 9 -8 9 -9.9375 7.3125 C-11 5 -11 5 -10.9375 2.375 C-10 0 -10 0 -8.3125 -1.4375 C-5.07768067 -2.22434795 -3.02223517 -1.23636893 0 0 Z M-5 4 C-5.33 4.99 -5.66 5.98 -6 7 C-5.01 7 -4.02 7 -3 7 C-3.33 6.01 -3.66 5.02 -4 4 C-4.33 4 -4.66 4 -5 4 Z " fill="#050505" transform="translate(371,494)"/>
<path d="M0 0 C3.5 0.125 3.5 0.125 4.5 1.125 C5.08225508 7.4133549 5.08225508 7.4133549 2.8125 10.1875 C0.5 11.125 0.5 11.125 -2.1875 10.375 C-4.5 9.125 -4.5 9.125 -5.5 8.125 C-4.64724712 0.16597311 -4.64724712 0.16597311 0 0 Z M-0.5 5.125 C-0.17 6.115 0.16 7.105 0.5 8.125 C0.83 7.135 1.16 6.145 1.5 5.125 C0.84 5.125 0.18 5.125 -0.5 5.125 Z " fill="#050505" transform="translate(502.5,474.875)"/>
<path d="M0 0 C2.48695054 0.05348281 3.88379953 0.12939977 6.125 1.25 C7.76102156 4.52204312 7.88819243 7.73790151 7.125 11.25 C4.875 13.75 4.875 13.75 2.125 15.25 C0.805 15.25 -0.515 15.25 -1.875 15.25 C-1.875 14.59 -1.875 13.93 -1.875 13.25 C0.435 12.59 2.745 11.93 5.125 11.25 C5.125 8.94 5.125 6.63 5.125 4.25 C4.135 3.92 3.145 3.59 2.125 3.25 C1.465 3.91 0.805 4.57 0.125 5.25 C-3.5 5.375 -3.5 5.375 -6.875 5.25 C-4.47435553 0.2886681 -4.47435553 0.2886681 0 0 Z " fill="#010101" transform="translate(349.875,487.75)"/>
<path d="M0 0 C3.6684248 0.5989265 4.83207412 1.58328923 7.0625 4.5 C7.0625 5.16 7.0625 5.82 7.0625 6.5 C5.94875 6.314375 4.835 6.12875 3.6875 5.9375 C0.23681139 5.18319343 0.23681139 5.18319343 -1.9375 6.5 C-2.59522428 9.52934491 -2.59522428 9.52934491 -2.9375 12.5 C-5 10.75 -5 10.75 -6.9375 8.5 C-6.79556057 3.95793828 -4.45437689 0.75819181 0 0 Z " fill="#1F1F1F" transform="translate(529.9375,458.5)"/>
<path d="M0 0 C0.66 0 1.32 0 2 0 C0.82575742 5.57765224 -0.55129319 11.06732651 -2.0625 16.5625 C-3.46849186 21.70203934 -4.56594973 26.68288419 -5 32 C-5.33 32 -5.66 32 -6 32 C-6.80285228 20.74222697 -4.77541642 11.53403073 -1 1 C-0.67 0.67 -0.34 0.34 0 0 Z " fill="#0A0809" transform="translate(205,370)"/>
<path d="M0 0 C0 0.66 0 1.32 0 2 C0.66 2 1.32 2 2 2 C2 3.65 2 5.3 2 7 C-4.625 8.25 -4.625 8.25 -8 6 C-7.67 4.68 -7.34 3.36 -7 2 C-6.67 2.33 -6.34 2.66 -6 3 C-5.566875 2.505 -5.13375 2.01 -4.6875 1.5 C-3 0 -3 0 0 0 Z " fill="#1F1C1D" transform="translate(354,185)"/>
<path d="M0 0 C2 1.5625 2 1.5625 3 3 C2.67 3.99 2.34 4.98 2 6 C1.46375 5.34 0.9275 4.68 0.375 4 C-1.88209898 1.74106848 -1.88209898 1.74106848 -5.0625 1.5625 C-7.95173516 1.7650975 -7.95173516 1.7650975 -9.75 3.25 C-11.0672814 5.09419396 -12.07360134 6.93341837 -13 9 C-14 6 -14 6 -13.3125 3.4375 C-12 1 -12 1 -10.375 -0.375 C-6.80094762 -1.3155401 -3.55470811 -0.95094102 0 0 Z " fill="#050303" transform="translate(357,180)"/>
<path d="M0 0 C1.875 0.3125 1.875 0.3125 4 1 C6 4 6 4 5.75 6.5625 C5 9 5 9 3 11 C0.375 11.125 0.375 11.125 -2 11 C-2 10.34 -2 9.68 -2 9 C-1.01 8.34 -0.02 7.68 1 7 C0.67 4.69 0.34 2.38 0 0 Z " fill="#1E1E1E" transform="translate(376,480)"/>
<path d="M0 0 C2.0625 0.4375 2.0625 0.4375 4 1 C4 1.99 4 2.98 4 4 C6.97 4.495 6.97 4.495 10 5 C10 4.34 10 3.68 10 3 C10.99 2.67 11.98 2.34 13 2 C13 2.99 13 3.98 13 5 C9.25401267 7.49732489 7.42998969 7.62175294 3 7 C0.5625 4 0.5625 4 -1 1 C-0.67 0.67 -0.34 0.34 0 0 Z " fill="#000000" transform="translate(496,461)"/>
<path d="M0 0 C4 2 4 2 4.8125 3.9375 C5 6 5 6 4 9 C1 11 1 11 -1.6875 10.625 C-2.450625 10.41875 -3.21375 10.2125 -4 10 C-3.01 9.67 -2.02 9.34 -1 9 C-0.67 6.03 -0.34 3.06 0 0 Z " fill="#1E1E1E" transform="translate(351,490)"/>
<path d="M0 0 C1.32 0.33 2.64 0.66 4 1 C4 3.31 4 5.62 4 8 C3.34 8 2.68 8 2 8 C2 8.66 2 9.32 2 10 C0.02 10 -1.96 10 -4 10 C-4.33 9.34 -4.66 8.68 -5 8 C-3.68 7.67 -2.36 7.34 -1 7 C-0.67 4.69 -0.34 2.38 0 0 Z " fill="#1E1E1E" transform="translate(504,456)"/>
<path d="M0 0 C0.66 0 1.32 0 2 0 C2.66 2.31 3.32 4.62 4 7 C7.465 6.505 7.465 6.505 11 6 C10.67 6.99 10.34 7.98 10 9 C7.39793134 10.2081033 6.14624292 10.04178369 3.375 9.25 C1 8 1 8 -1 5 C-0.625 2.3125 -0.625 2.3125 0 0 Z " fill="#010001" transform="translate(370,506)"/>
<path d="M0 0 C2 2 2 2 2.23046875 5.00390625 C2.20919922 6.76541016 2.20919922 6.76541016 2.1875 8.5625 C2.18105469 9.73941406 2.17460937 10.91632813 2.16796875 12.12890625 C2 15 2 15 1 16 C-0.66617115 16.04063832 -2.33388095 16.042721 -4 16 C-4 15.34 -4 14.68 -4 14 C-2.68 14 -1.36 14 0 14 C0 9.38 0 4.76 0 0 Z " fill="#000000" transform="translate(379,236)"/>
<path d="M0 0 C0.763125 0.20625 1.52625 0.4125 2.3125 0.625 C1.6525 1.016875 0.9925 1.40875 0.3125 1.8125 C-1.97916667 3.47916667 -1.97916667 3.47916667 -1.9375 6.3125 C-1.855 7.075625 -1.7725 7.83875 -1.6875 8.625 C-3.0075 7.965 -4.3275 7.305 -5.6875 6.625 C-5.875 4.25 -5.875 4.25 -5.6875 1.625 C-2.6875 -0.375 -2.6875 -0.375 0 0 Z " fill="#1C1C1C" transform="translate(520.6875,475.375)"/>
<path d="M0 0 C-2 2 -2 2 -4.8203125 2.1953125 C-5.91085937 2.17210937 -7.00140625 2.14890625 -8.125 2.125 C-9.22070312 2.10695313 -10.31640625 2.08890625 -11.4453125 2.0703125 C-12.28835938 2.04710937 -13.13140625 2.02390625 -14 2 C-14.33 1.34 -14.66 0.68 -15 0 C-9.77254141 -1.2063366 -5.23471686 -0.75612577 0 0 Z " fill="#090708" transform="translate(503,433)"/>
<path d="M0 0 C2.0625 0.4375 2.0625 0.4375 4 1 C3.649375 1.5775 3.29875 2.155 2.9375 2.75 C1.85082593 5.35801776 2.06934867 6.39417629 3 9 C1.68 8.34 0.36 7.68 -1 7 C-1.04254356 5.00045254 -1.04080783 2.99958364 -1 1 C-0.67 0.67 -0.34 0.34 0 0 Z " fill="#1F1E1F" transform="translate(373,505)"/>
<path d="M0 0 C2.78637633 4.1795645 1.79562512 6.14668677 1 11 C0.01 11.33 -0.98 11.66 -2 12 C-1.34 8.04 -0.68 4.08 0 0 Z " fill="#0D0809" transform="translate(438,339)"/>
<path d="M0 0 C-1.41538717 0.33872513 -2.83237963 0.67074624 -4.25 1 C-5.03890625 1.185625 -5.8278125 1.37125 -6.640625 1.5625 C-9 2 -9 2 -13 2 C-13 1.34 -13 0.68 -13 0 C-11.58800422 -0.39222105 -10.17007236 -0.76311059 -8.75 -1.125 C-7.96109375 -1.33382813 -7.1721875 -1.54265625 -6.359375 -1.7578125 C-3.5796929 -2.04314411 -2.34112451 -1.44977894 0 0 Z " fill="#080708" transform="translate(322,283)"/>
<path d="M0 0 C1.4800841 0.11362262 2.95910074 0.24122908 4.4375 0.375 C5.26121094 0.44460938 6.08492188 0.51421875 6.93359375 0.5859375 C7.95646484 0.79089844 7.95646484 0.79089844 9 1 C9.33 1.66 9.66 2.32 10 3 C7 3 4 3 1 3 C0.67 2.01 0.34 1.02 0 0 Z " fill="#141414" transform="translate(480,549)"/>
<path d="M0 0 C0.33 0.66 0.66 1.32 1 2 C1.99 1.67 2.98 1.34 4 1 C6 4 6 4 6 7 C3.5625 6.3125 3.5625 6.3125 1 5 C0.1875 2.375 0.1875 2.375 0 0 Z " fill="#090506" transform="translate(344,189)"/>
<path d="M0 0 C7.42857143 -0.28571429 7.42857143 -0.28571429 11 2 C10 3 10 3 6.4375 3.0625 C5.303125 3.041875 4.16875 3.02125 3 3 C3 2.34 3 1.68 3 1 C2.01 0.67 1.02 0.34 0 0 Z " fill="#0C0A0C" transform="translate(365,545)"/>
<path d="M0 0 C2.97 0.33 5.94 0.66 9 1 C9.33 1.99 9.66 2.98 10 4 C6.7 3.67 3.4 3.34 0 3 C0 2.01 0 1.02 0 0 Z " fill="#100F0F" transform="translate(368,279)"/>
<path d="M0 0 C3.63 0 7.26 0 11 0 C11 0.33 11 0.66 11 1 C9.5437328 1.36256858 8.08488815 1.71479793 6.625 2.0625 C5.40683594 2.35833984 5.40683594 2.35833984 4.1640625 2.66015625 C2 3 2 3 0 2 C0 1.34 0 0.68 0 0 Z " fill="#1D191A" transform="translate(355,178)"/>
</svg>
